<svg id="Layer_1" data-name="Layer 1" xmlns="http://www.w3.org/2000/svg" viewBox="0 0 40 40"><defs><style>.cls-1{fill:#2a52a4;}.cls-2{fill:#fff;fill-rule:evenodd;}</style></defs><title>Untitled-2</title><path class="cls-1" d="M40,20A20,20,0,0,1,24.69,39.43,19.39,19.39,0,0,1,20,40c-.45,0-.89,0-1.33-.05A20,20,0,1,1,40,20Z"/><path class="cls-2" d="M24.7,16.31c0,1.24-.05,4.12-.05,4.12h5.72l-.76,5.81H24.69v13.2A19.39,19.39,0,0,1,20,40c-.45,0-.89,0-1.33-.05V26.22H13.74V20.42h5V20c0-1.17,0-2.33,0-3.49a16.57,16.57,0,0,1,.18-2.22,6.49,6.49,0,0,1,2.6-4.33,7.52,7.52,0,0,1,4.33-1.33c1,0,2,0,3.07.07.56,0,1.12.11,1.64.16V14h-.41c-1,0-2,0-3,0C25.76,14.08,24.75,14.6,24.7,16.31Z"/></svg>