<svg id="Layer_1" data-name="Layer 1" xmlns="http://www.w3.org/2000/svg" viewBox="0 0 40 40"><defs><style>.cls-1{fill:#ebe5dd;}.cls-2{fill:#d9cbbd;}.cls-3{fill:#ab2823;}.cls-4{fill:#cc2f27;}</style></defs><title>Untitled-2</title><circle class="cls-1" cx="20" cy="20" r="20"/><circle class="cls-1" cx="20" cy="20" r="20"/><path class="cls-2" d="M40,20A19.94,19.94,0,0,0,34,5.76l-11.43,9-3.48.87L7.83,7.83l-2.9-1q-.58.66-1.1,1.38l25,29.71A20,20,0,0,0,40,20Z"/><path class="cls-3" d="M40,20A19.91,19.91,0,0,0,36.12,8.16L34.74,9.25V33.52A19.93,19.93,0,0,0,40,20Z"/><path class="cls-4" d="M32.51,4.4l-12,9.09a.82.82,0,0,1-1,0L7.49,4.4A20.11,20.11,0,0,0,3.83,8.24L19.49,20.53a.82.82,0,0,0,1,0L36.17,8.24A20.11,20.11,0,0,0,32.51,4.4Z"/><path class="cls-3" d="M5.26,33.52V9.25L3.88,8.16A20,20,0,0,0,5.26,33.52Z"/></svg>